<svg width="607" height="607" viewBox="0 0 607 607" fill="none" xmlns="http://www.w3.org/2000/svg">
<g clip-path="url(#clip0_5_659)">
<rect width="607" height="607" rx="38" fill="white"/>
<g clip-path="url(#clip1_5_659)">
<path d="M569.177 0H37.8229C16.9339 0 0 16.9339 0 37.8229V569.177C0 590.066 16.9339 607 37.8229 607H569.177C590.066 607 607 590.066 607 569.177V37.8229C607 16.9339 590.066 0 569.177 0Z" fill="#C40202"/>
<path d="M421.346 455.255V531.128H75.9548L75.9136 531.107L118.887 455.255H421.346Z" fill="white"/>
<path d="M531.127 75.8724V95.8757L499.485 151.745L455.255 229.822L370.524 379.383L342.981 427.382H255.778L283.321 379.383L412.261 151.745L455.255 75.8724H531.127Z" fill="white"/>
<path d="M420.934 75.8724V75.9548L378.003 151.745H75.8726V75.8724H420.934Z" fill="white"/>
<path d="M420.934 75.8724V75.9548L378.002 151.745L206.069 455.255L163.096 531.128H75.9548L75.9136 531.107L118.887 455.255L290.8 151.745L333.773 75.8724H420.934Z" fill="white"/>
<path d="M531.128 75.8724H455.255V531.128H531.128V75.8724Z" fill="white"/>
<path d="M109.019 409.501L75.8932 467.986L75.9344 468.007H75.8726V181.472H238.721L109.019 409.501Z" fill="white"/>
</g>
</g>
<defs>
<clipPath id="clip0_5_659">
<rect width="607" height="607" rx="38" fill="white"/>
</clipPath>
<clipPath id="clip1_5_659">
<rect width="607" height="607" fill="white"/>
</clipPath>
</defs>
</svg>
